<?xml version="1.0" standalone="no"?>
<!DOCTYPE svg PUBLIC "-//W3C//DTD SVG 20010904//EN"
 "http://www.w3.org/TR/2001/REC-SVG-20010904/DTD/svg10.dtd">
<svg version="1.0" xmlns="http://www.w3.org/2000/svg"
 width="641.000000pt" height="641.000000pt" viewBox="0 0 641.000000 641.000000"
 preserveAspectRatio="xMidYMid meet">
<metadata>
Created by potrace 1.11, written by Peter Selinger 2001-2013
</metadata>
<g transform="translate(0.000000,641.000000) scale(0.100000,-0.100000)"
fill="#000000" stroke="none">
<path d="M2941 6392 c-9 -17 -8 -23 5 -30 13 -7 9 -9 -15 -8 -17 0 -31 3 -31
6 0 12 -61 2 -77 -12 -27 -23 -66 -29 -96 -13 -24 12 -28 12 -37 -3 -5 -9 -10
-14 -10 -9 0 4 -14 0 -31 -8 -24 -13 -34 -14 -45 -5 -7 7 -21 10 -30 6 -8 -3
-27 0 -42 8 -31 16 -52 11 -52 -12 0 -13 -3 -12 -15 4 -8 10 -15 15 -15 10 0
-6 -6 -3 -12 6 -13 16 -103 40 -113 30 -3 -3 -5 -14 -5 -24 0 -10 -9 -26 -20
-35 -22 -19 -29 -68 -7 -58 6 4 3 -1 -7 -9 -11 -9 -16 -16 -11 -16 4 0 0 -9
-9 -19 -12 -13 -15 -27 -11 -41 9 -28 -28 -70 -55 -63 -28 8 -32 -12 -9 -51
11 -20 18 -36 15 -36 -3 0 -1 -11 4 -25 8 -20 7 -23 -8 -18 -9 4 -20 11 -24
17 -11 17 -27 -6 -27 -39 -1 -87 0 -89 23 -47 10 18 15 22 16 10 0 -27 -22
-68 -37 -68 -7 0 -13 -7 -13 -15 0 -8 -4 -15 -10 -15 -5 0 -10 9 -10 19 0 10
-6 21 -14 24 -15 6 -36 -11 -36 -29 0 -7 -8 -10 -17 -8 -10 2 -24 0 -31 -4
-17 -12 -20 -108 -4 -105 14 3 16 -9 3 -23 -14 -15 -25 -58 -12 -50 5 4 17 -7
26 -24 l16 -31 -25 16 c-28 19 -33 14 -42 -43 -4 -28 -2 -47 6 -57 10 -12 10
-22 2 -39 -15 -33 -2 -49 30 -37 14 5 27 14 29 20 3 7 9 7 19 1 13 -9 13 -10
-1 -10 -9 0 -22 -12 -29 -26 -8 -14 -23 -30 -33 -36 -14 -7 -17 -7 -13 1 4 6
2 11 -3 11 -6 0 -11 -5 -11 -11 0 -5 -5 -7 -11 -3 -8 4 -8 9 0 17 13 13 15 28
4 25 -5 0 -15 2 -24 6 -18 8 -18 60 -1 136 6 25 8 48 5 53 -9 15 -20 -3 -27
-43 -3 -22 -11 -40 -16 -40 -6 0 -10 -9 -10 -19 0 -11 -4 -22 -10 -26 -6 -3
-8 20 -6 61 3 53 -1 75 -17 106 -11 21 -24 38 -29 38 -4 0 -8 10 -8 22 0 21
-2 20 -30 -11 -26 -28 -30 -39 -26 -76 5 -58 -14 -65 -53 -18 -17 20 -33 34
-37 30 -4 -3 -7 -26 -8 -50 0 -37 -3 -42 -13 -28 -11 15 -13 14 -27 -4 -17
-22 -22 -70 -6 -60 6 3 10 -3 10 -14 0 -28 57 -56 78 -38 13 9 14 9 8 0 -4 -7
-2 -13 4 -13 6 0 10 -6 8 -12 -6 -28 101 -166 109 -141 2 6 10 19 18 29 14 18
14 18 15 -8 0 -32 19 -38 27 -8 5 20 15 25 26 13 4 -3 3 -11 -2 -17 -5 -6 -12
-28 -16 -48 -7 -35 -5 -38 15 -38 22 0 50 21 50 39 0 5 6 14 14 18 7 4 19 18
25 31 10 19 15 21 27 11 15 -12 19 -31 7 -27 -5 2 -18 -6 -30 -16 -17 -15 -20
-24 -12 -38 7 -14 6 -18 -6 -18 -9 0 -18 -12 -22 -31 -3 -17 -12 -33 -19 -36
-25 -9 -16 -41 11 -45 14 -2 24 -7 23 -13 -2 -5 -7 -9 -11 -7 -4 1 -14 -12
-22 -30 -8 -18 -14 -27 -15 -20 0 8 -8 10 -22 7 -13 -3 -35 -7 -51 -9 -15 -3
-34 -12 -43 -21 -21 -21 -2 -45 36 -45 44 0 62 -9 47 -25 -9 -10 -16 -10 -32
1 -18 12 -26 10 -61 -11 -33 -20 -41 -30 -40 -52 1 -22 6 -29 26 -31 14 -2 29
-7 33 -11 4 -4 -6 -6 -23 -3 -22 3 -30 0 -30 -11 0 -20 19 -32 43 -29 19 4 24
-23 6 -34 -6 -3 -9 -15 -6 -25 5 -19 -2 -20 -65 -3 -9 3 -19 0 -23 -6 -3 -6
-9 -8 -13 -6 -4 2 -7 -9 -8 -26 -1 -16 2 -24 6 -18 6 9 14 8 34 -5 15 -10 33
-14 43 -10 10 4 36 9 57 12 22 2 52 11 67 19 19 9 29 10 31 3 9 -28 98 36 98
70 0 9 16 26 35 39 19 12 35 17 35 12 0 -6 6 -8 13 -5 6 4 -5 -9 -26 -28 -25
-23 -35 -40 -31 -50 4 -11 -2 -20 -18 -28 -18 -8 -24 -17 -21 -33 4 -16 -1
-22 -17 -23 -23 -2 -54 -23 -45 -31 2 -3 12 1 21 9 16 13 17 11 10 -26 -7 -36
-54 -93 -78 -95 -10 0 -40 -60 -31 -60 5 0 3 -4 -3 -8 -5 -4 -18 -18 -27 -32
-17 -24 -17 -24 -17 -2 0 12 -3 22 -6 22 -14 0 -64 -35 -64 -45 0 -5 -4 -4 -9
4 -7 11 -15 9 -40 -10 -29 -21 -35 -34 -33 -69 0 -7 -6 -26 -13 -40 -8 -15
-10 -32 -5 -39 6 -11 14 -8 35 12 23 21 31 23 46 14 20 -12 26 -37 9 -37 -5 0
-13 -12 -16 -26 -9 -34 14 -49 39 -26 10 9 24 17 30 17 7 1 25 7 41 15 27 13
28 17 22 62 -6 42 -4 48 11 48 13 1 35 34 76 118 31 65 57 125 57 134 0 9 5
20 10 23 6 4 8 10 6 14 -3 4 1 8 9 8 19 0 19 -11 0 -27 -8 -7 -15 -16 -15 -21
0 -5 7 -9 15 -9 19 0 19 -6 -3 -38 -17 -24 -52 -104 -52 -118 0 -3 5 -2 10 1
6 3 10 1 10 -5 0 -7 7 -9 18 -5 14 5 15 4 5 -6 -17 -17 -16 -59 2 -83 10 -13
11 -24 4 -37 -12 -23 -41 -26 -33 -4 10 24 -15 17 -27 -8 -6 -14 -7 -31 -1
-47 l10 -25 7 28 c4 15 11 27 16 27 9 0 2 -44 -9 -64 -3 -5 -6 -31 -6 -57 -1
-31 -8 -55 -20 -68 -10 -11 -19 -37 -19 -58 l-2 -38 45 3 c58 4 82 26 79 72
-2 19 5 58 14 85 9 28 15 59 14 70 -3 40 15 86 40 102 18 12 23 23 20 40 -5
29 9 39 29 22 13 -10 17 -10 26 2 7 10 8 6 4 -14 -5 -21 -2 -29 11 -34 10 -3
25 -14 33 -24 8 -9 24 -19 35 -21 20 -3 55 -34 55 -50 0 -4 7 -8 15 -8 8 0 15
-5 15 -11 0 -5 4 -8 9 -5 12 8 34 -21 26 -34 -4 -6 0 -19 8 -28 19 -21 7 -58
-22 -67 -11 -3 -23 -16 -27 -28 -3 -12 -11 -28 -17 -35 -6 -8 -12 -27 -13 -43
-2 -25 -34 -83 -54 -99 -4 -3 -15 -26 -25 -53 -10 -26 -20 -45 -23 -43 -2 3
-13 1 -23 -5 -35 -18 -16 -128 27 -152 17 -10 46 -76 39 -88 -6 -10 30 -49 45
-49 13 0 13 43 1 56 -6 5 -13 28 -17 51 -5 36 -3 43 16 53 19 10 24 10 32 -4
5 -9 16 -16 25 -16 9 0 34 -19 56 -42 50 -52 86 -73 101 -58 17 17 18 100 1
106 -8 4 -15 13 -15 20 0 12 4 12 28 0 15 -8 40 -26 56 -40 49 -44 99 -35 179
30 25 21 45 30 59 26 25 -6 39 15 31 45 -6 24 -9 23 77 27 17 0 38 -2 48 -6
16 -6 16 -7 0 -7 -16 -1 -23 -12 -19 -34 1 -5 -3 -6 -8 -3 -5 3 -15 -1 -22
-10 -13 -16 -17 -27 -24 -71 -3 -20 -43 -85 -56 -91 -3 -1 -4 -14 -2 -27 3
-13 -2 -38 -11 -56 -15 -30 -15 -33 12 -68 44 -57 63 -91 68 -119 3 -15 11
-34 18 -42 7 -8 16 -23 19 -32 4 -11 13 -15 27 -11 20 5 21 4 9 -15 -11 -18
-11 -27 4 -56 16 -34 37 -48 37 -26 0 6 -4 10 -10 10 -5 0 -10 4 -10 9 0 5 8
8 17 7 10 0 26 15 40 39 20 36 29 35 23 -4 -1 -12 3 -11 24 2 15 10 27 13 31
7 10 -17 -18 -91 -45 -120 -25 -27 -27 -36 -29 -119 -1 -72 2 -92 14 -99 14
-7 13 -13 -6 -50 l-23 -42 21 -39 21 -39 -39 -21 c-22 -12 -39 -25 -39 -28 0
-3 10 -19 22 -36 l22 -32 -27 24 c-15 14 -27 21 -27 17 0 -4 -8 -2 -18 3 -21
11 -85 -3 -112 -24 -27 -22 -44 -22 -93 -4 -57 22 -68 23 -61 6 7 -19 -30 -49
-50 -41 -9 3 -16 12 -16 19 0 15 -38 27 -46 14 -8 -14 -22 -1 -44 42 -19 35
-24 39 -60 39 -48 0 -91 -16 -89 -32 4 -32 -2 -62 -9 -50 -9 13 -42 6 -42 -9
0 -14 46 -55 58 -51 5 1 13 -6 17 -17 3 -11 20 -32 38 -47 51 -43 52 -58 6
-108 -23 -25 -47 -42 -53 -40 -16 6 -84 -68 -92 -101 -6 -25 -5 -26 22 -19 16
4 34 11 41 16 7 6 15 3 21 -8 13 -24 38 -11 45 23 5 24 14 31 59 46 52 17 53
17 71 -4 10 -13 15 -30 11 -41 -3 -10 2 -30 11 -44 23 -35 26 -61 9 -75 -18
-15 -18 -38 2 -78 15 -30 15 -48 -2 -116 -12 -50 -84 -140 -107 -132 -5 1 -23
-11 -41 -27 -24 -20 -45 -29 -75 -31 -35 -2 -49 -10 -81 -43 -20 -23 -40 -38
-44 -35 -3 3 -12 0 -20 -6 -9 -7 -21 -9 -28 -5 -23 15 -38 13 -48 -7 -6 -10
-8 -19 -4 -19 4 0 -14 -11 -40 -25 -84 -45 -103 -80 -38 -69 29 4 43 2 55 -11
21 -20 22 -45 3 -45 -7 0 -19 -7 -26 -15 -7 -9 -21 -13 -31 -10 -24 8 -30 -6
-12 -30 13 -16 15 -17 10 -2 -9 24 9 21 27 -5 15 -21 16 -21 38 -3 13 11 17
13 10 5 -16 -19 -15 -30 3 -30 8 0 15 -8 15 -19 0 -25 57 -37 79 -17 9 8 33
14 55 13 36 -2 39 0 40 26 3 54 43 60 128 20 60 -29 69 -39 43 -49 -11 -5 -13
-10 -5 -19 8 -10 8 -15 -1 -20 -20 -13 49 -37 71 -25 10 6 35 10 54 10 24 0
36 5 36 14 0 22 30 28 56 12 12 -9 27 -31 34 -51 7 -21 18 -35 28 -35 9 0 31
-14 49 -32 29 -28 38 -31 95 -31 85 1 97 5 114 38 22 42 65 75 99 75 17 0 39
7 49 15 11 8 26 15 33 15 19 0 16 -40 -4 -47 -23 -8 -113 -98 -113 -112 0 -6
-4 -11 -10 -11 -5 0 -10 -8 -10 -18 0 -10 -3 -22 -7 -26 -5 -4 -8 -12 -8 -18
0 -6 -7 -14 -15 -18 -8 -4 -25 -12 -37 -18 -32 -17 -74 -15 -112 4 -18 9 -44
14 -57 11 -14 -2 -40 -1 -59 3 -18 4 -57 3 -86 -1 -30 -5 -73 -11 -97 -14 -51
-5 -65 -13 -58 -30 2 -7 -2 -16 -11 -20 -13 -4 -14 -8 -5 -17 19 -19 14 -47
-13 -75 -21 -24 -27 -25 -47 -15 -54 29 -65 24 -75 -31 -6 -29 -9 -67 -8 -85
2 -25 -4 -40 -26 -63 -16 -16 -29 -34 -29 -39 0 -5 -9 -12 -20 -15 -11 -3 -20
-15 -20 -25 0 -22 -15 -33 -50 -38 -14 -2 -29 -10 -33 -18 -4 -8 -17 -14 -27
-14 -13 0 -17 -5 -14 -14 3 -8 0 -17 -5 -21 -6 -3 -9 -11 -6 -16 9 -13 -5 -50
-15 -44 -12 7 -42 -24 -34 -36 7 -12 -85 -101 -97 -93 -4 2 -13 -5 -19 -17 -9
-15 -15 -18 -23 -10 -16 16 -35 14 -67 -9 -15 -11 -30 -17 -33 -14 -7 8 -20
-35 -21 -71 -1 -24 4 -31 21 -33 31 -5 63 15 63 38 0 20 29 28 44 12 4 -4 11
-8 14 -8 38 -8 51 -20 59 -52 6 -27 15 -38 31 -40 12 -2 22 1 22 7 0 6 8 11
18 11 24 0 45 36 33 58 -12 22 2 47 26 47 11 0 19 9 21 22 2 14 8 20 18 16 7
-3 17 2 20 11 4 11 13 14 25 11 22 -7 39 18 39 59 0 8 7 17 16 20 8 3 12 2 9
-4 -3 -5 18 -7 52 -5 32 2 59 8 61 14 2 6 21 11 43 11 28 0 42 -6 51 -20 12
-19 13 -19 37 3 13 12 21 17 18 11 -8 -14 39 -47 54 -38 16 10 64 -15 74 -39
8 -18 18 -22 58 -22 47 0 47 0 47 32 0 26 6 36 25 45 14 6 31 24 39 39 12 25
12 28 -5 32 -23 6 -25 27 -3 27 11 0 14 7 11 27 -5 35 24 89 47 85 9 -2 16 2
16 8 0 5 5 10 11 10 6 0 18 9 27 20 10 11 33 22 52 24 49 7 61 10 96 24 26 11
38 10 85 -7 75 -29 149 -93 141 -123 -5 -21 -4 -22 11 -9 20 16 22 38 5 43 -7
3 -9 12 -5 22 6 15 16 17 72 12 35 -3 73 -10 84 -15 26 -15 81 -3 82 18 1 9 0
26 -1 38 -2 25 38 47 65 37 8 -4 22 -1 30 6 12 10 15 7 21 -14 4 -18 17 -29
42 -37 21 -6 60 -24 87 -39 47 -26 53 -27 83 -14 18 7 57 34 86 60 43 37 53
51 50 70 -5 29 -1 29 37 7 28 -17 30 -17 44 3 14 21 69 41 130 48 17 2 51 9
76 17 28 7 53 9 65 4 10 -5 26 -9 34 -11 8 -1 35 -7 60 -14 25 -7 45 -11 45
-10 0 1 12 -3 26 -9 24 -9 30 -6 57 28 23 28 44 42 91 56 33 10 70 29 82 41
18 20 33 24 77 24 l54 0 -5 36 c-4 29 0 42 18 60 13 13 33 24 43 24 11 0 25 7
32 15 7 8 18 15 25 15 7 0 24 9 39 21 28 22 34 58 16 105 -8 21 -7 31 5 44 17
18 20 46 6 54 -10 6 -188 -28 -198 -37 -3 -4 -14 4 -24 17 -10 13 -34 26 -53
29 -32 5 -76 33 -76 49 0 4 10 4 22 -1 13 -5 36 -4 53 2 30 10 67 46 60 58 -3
3 5 15 15 27 27 29 25 44 -4 36 -20 -5 -23 -2 -21 20 2 18 -4 31 -18 41 -21
14 -21 15 -2 16 11 1 33 0 48 -1 21 -1 38 9 68 39 34 34 39 43 30 60 -14 25
-14 31 2 31 6 0 23 17 37 36 14 20 40 52 58 71 17 18 33 45 33 58 1 14 2 44 3
68 1 23 10 59 19 80 18 41 22 105 13 177 -14 97 -38 130 -147 206 -53 36 -80
48 -113 50 -24 1 -59 6 -77 11 -38 10 -86 10 -176 -1 -55 -7 -62 -11 -73 -37
-7 -16 -16 -29 -20 -29 -4 0 -11 -10 -17 -22 -8 -18 -18 -23 -46 -23 -21 0
-37 3 -37 7 0 3 -13 11 -29 16 -41 14 -32 42 36 109 46 46 53 58 53 91 0 56
-91 239 -125 252 -28 11 -33 28 -10 36 21 8 28 40 14 66 -7 13 -36 52 -65 87
-73 88 -113 177 -98 216 3 7 17 16 30 19 35 9 25 27 -24 45 -27 10 -42 21 -42
32 0 10 -9 20 -20 24 -10 3 -30 30 -44 59 -14 29 -32 59 -41 66 -8 7 -15 19
-15 26 0 8 -12 20 -27 27 -16 6 -30 14 -33 17 -15 16 -59 38 -90 43 -50 10
-130 49 -130 65 0 7 -12 23 -26 35 -29 26 -62 110 -58 150 1 15 -2 29 -7 33
-18 11 -70 126 -64 141 3 9 -2 27 -11 41 -9 13 -14 35 -11 48 2 13 -2 29 -9
35 -16 13 -19 39 -4 39 6 0 6 8 1 23 -5 12 -15 44 -23 71 -9 35 -21 54 -40 65
-15 9 -29 25 -30 35 -2 13 -15 23 -35 28 -25 6 -39 21 -64 66 -45 79 -63 95
-105 99 -21 1 -47 11 -58 22 -12 10 -32 22 -46 26 -27 8 -62 40 -54 48 3 3
-13 4 -35 2 -42 -3 -64 -18 -75 -52 -9 -27 -64 -44 -91 -27 -11 7 -37 14 -58
17 -43 6 -62 17 -29 17 12 0 22 4 22 9 0 5 11 12 25 15 14 4 25 12 25 18 0 7
19 31 41 54 37 37 44 41 65 32 27 -13 76 7 112 45 l23 24 -23 14 c-13 8 -35
20 -50 27 -23 9 -28 18 -28 46 0 19 -6 37 -12 39 -7 3 -1 6 14 6 16 1 36 12
50 30 14 16 34 34 47 40 12 7 19 16 16 21 -3 5 0 12 6 15 5 4 8 14 4 23 -3 8
-1 18 5 22 6 4 13 20 15 36 1 15 14 37 27 49 35 29 58 71 64 111 2 20 15 60
29 90 16 34 23 64 19 81 -7 38 17 101 60 158 41 53 53 89 37 109 -6 7 -8 16
-4 19 3 4 1 13 -5 20 -7 8 -9 16 -6 19 7 8 -46 64 -57 61 -5 -2 -9 2 -9 7 0
14 -63 13 -77 -1 -8 -8 -17 -8 -30 0 -12 6 -24 6 -29 1 -16 -15 -145 -12 -204
5 -8 3 -28 -3 -45 -14 -29 -17 -31 -17 -75 1 -25 11 -53 21 -63 23 -26 6 -77
-15 -77 -31 0 -9 -12 -14 -36 -14 -23 0 -48 -9 -70 -27 -25 -19 -48 -27 -78
-27 l-43 -1 41 60 c23 33 44 62 47 65 3 3 14 19 24 37 21 35 12 60 -11 29 -11
-16 -16 -17 -29 -6 -12 10 -19 10 -27 2 -15 -15 -48 -15 -48 -1 0 6 9 9 20 6
14 -4 20 0 21 11 2 35 6 62 10 65 2 2 17 11 32 20 15 10 25 22 22 26 -2 5 12
20 33 33 43 29 99 84 126 123 10 15 31 32 47 39 58 24 126 157 76 148 -22 -4
-21 5 3 53 33 64 29 71 -42 73 -34 1 -65 7 -69 13 -4 8 -11 5 -18 -9z m-676
-291 c-3 -6 -11 -8 -17 -5 -6 4 -5 9 3 15 16 10 23 4 14 -10z m-31 -236 c6
-17 -25 -30 -35 -14 -4 7 -5 18 -2 25 6 15 29 8 37 -11z m463 -190 c-4 -8 -14
-15 -23 -15 -16 0 -16 2 1 20 20 22 31 20 22 -5z m-22 -115 c-16 -16 -31 -28
-33 -25 -9 9 29 55 45 55 13 0 10 -7 -12 -30z m-467 -631 c-16 -11 -28 -25
-28 -29 0 -11 -79 -90 -90 -90 -4 0 -10 -9 -13 -20 -3 -13 -10 -18 -21 -14
-18 7 -22 24 -5 24 6 0 44 34 83 75 40 41 78 75 86 75 9 -1 4 -9 -12 -21z
m-222 -107 c-7 -6 -56 18 -56 27 0 6 13 2 29 -7 16 -9 28 -18 27 -20z m39 -20
c-3 -3 -11 0 -18 7 -9 10 -8 11 6 5 10 -3 15 -9 12 -12z m1125 -36 c0 -5 -59
-36 -67 -36 -3 0 -3 6 -1 13 3 6 18 15 34 18 16 4 30 7 32 8 1 0 2 -1 2 -3z
m-213 -319 c4 -6 -2 -8 -18 -4 -13 4 -32 7 -42 7 -10 0 -16 4 -13 8 7 11 64 3
73 -11z m-764 -70 c4 -66 -6 -66 -22 -1 -10 38 -9 49 1 55 17 11 17 10 21 -54z
m271 21 c16 -11 -6 -10 -23 1 -8 5 -10 14 -5 22 6 10 9 10 12 -1 3 -8 10 -18
16 -22z m-61 15 c4 -3 -1 -12 -10 -18 -12 -9 -17 -27 -17 -61 1 -27 -3 -52 -8
-55 -5 -3 -11 -15 -12 -25 -2 -10 -7 -18 -12 -16 -5 2 -8 11 -6 21 1 10 -2 30
-7 44 -8 20 -7 25 3 21 9 -3 20 12 32 45 18 50 24 58 37 44z m-603 -148 c-7
-9 -15 -13 -17 -11 -7 7 7 26 19 26 6 0 6 -6 -2 -15z m530 -628 c0 -5 -4 -5
-10 -2 -5 3 -10 14 -10 23 0 15 2 15 10 2 5 -8 10 -19 10 -23z m905 -1157 c3
-5 2 -10 -4 -10 -5 0 -13 5 -16 10 -3 6 -2 10 4 10 5 0 13 -4 16 -10z"/>
<path d="M3040 6400 c0 -5 5 -10 10 -10 6 0 10 5 10 10 0 6 -4 10 -10 10 -5 0
-10 -4 -10 -10z"/>
<path d="M1844 6288 c-5 -7 -25 -25 -44 -38 -19 -14 -45 -35 -58 -47 -13 -13
-28 -23 -34 -23 -6 0 -27 -10 -47 -22 -19 -12 -42 -23 -51 -25 -8 -1 -20 -9
-26 -17 -6 -9 -18 -16 -27 -16 -9 0 -19 -9 -22 -20 -3 -11 -11 -20 -16 -20 -6
0 -8 -4 -4 -9 3 -5 1 -12 -5 -16 -14 -9 -8 -58 10 -73 13 -11 12 -12 -7 -7
-17 5 -23 2 -23 -11 0 -19 44 -64 63 -64 7 0 -1 -9 -18 -20 -29 -19 -29 -20
-8 -26 14 -4 20 -11 16 -21 -3 -8 -12 -12 -19 -9 -8 3 -21 3 -29 -1 -14 -5
-13 -7 3 -19 12 -8 18 -22 16 -36 -2 -13 2 -31 10 -42 14 -17 17 -16 53 22 21
21 48 43 61 46 17 6 22 13 18 29 -3 12 -3 16 0 10 10 -23 34 -14 34 13 0 20 4
25 16 20 17 -7 64 21 64 38 0 6 9 17 20 24 16 10 21 22 19 50 -4 85 -2 92 30
86 22 -5 32 -1 45 17 32 46 16 64 -25 28 -33 -29 -36 -6 -3 36 34 44 40 120
14 155 -14 19 -19 20 -26 8z m-264 -433 c-7 -9 -15 -13 -17 -11 -7 7 7 26 19
26 6 0 6 -6 -2 -15z m-30 -136 c0 -18 -18 -9 -23 12 -4 16 -3 18 9 8 8 -6 14
-15 14 -20z"/>
<path d="M1314 6138 c-4 -6 -3 -8 4 -4 5 3 12 1 14 -6 3 -8 7 -6 11 5 7 20
-17 24 -29 5z"/>
<path d="M2126 5884 c-4 -9 -4 -19 -1 -22 2 -3 7 3 11 12 4 9 4 19 1 22 -2 3
-7 -3 -11 -12z"/>
<path d="M965 5850 c3 -5 8 -10 11 -10 2 0 4 5 4 10 0 6 -5 10 -11 10 -5 0 -7
-4 -4 -10z"/>
<path d="M1792 5839 c2 -6 8 -10 13 -10 5 0 11 4 13 10 2 6 -4 11 -13 11 -9 0
-15 -5 -13 -11z"/>
<path d="M1444 5776 c-8 -21 12 -44 25 -30 6 5 4 16 -4 28 -13 18 -15 18 -21
2z"/>
<path d="M1454 5713 c-15 -16 -22 -21 -15 -11 6 9 8 19 3 22 -5 3 -15 -5 -21
-18 -10 -18 -20 -22 -41 -20 -22 3 -30 -1 -35 -17 -4 -11 -16 -24 -28 -29 -19
-7 -19 -9 -4 -9 42 -2 98 -82 66 -93 -9 -3 -9 -10 0 -26 10 -18 9 -23 -3 -28
-11 -4 -13 -12 -6 -29 6 -16 5 -33 -5 -53 -10 -19 -12 -38 -6 -58 4 -16 7 -37
5 -47 -1 -10 6 -23 17 -30 10 -6 19 -20 19 -29 0 -23 19 -23 27 0 4 9 10 20
15 23 5 3 5 24 0 47 -8 33 -6 46 8 70 10 17 16 33 13 36 -11 10 -12 56 -2 56
5 0 9 13 9 28 0 15 4 32 10 38 5 5 11 19 13 31 2 13 6 26 10 29 4 4 7 15 7 24
0 10 7 23 15 30 18 15 3 40 -22 40 -10 0 -14 7 -10 20 8 32 -9 33 -39 3z"/>
<path d="M1265 5710 c-3 -5 -2 -10 4 -10 5 0 13 5 16 10 3 6 2 10 -4 10 -5 0
-13 -4 -16 -10z"/>
<path d="M1720 5621 c0 -5 5 -13 10 -16 6 -3 10 -2 10 4 0 5 -4 13 -10 16 -5
3 -10 2 -10 -4z"/>
<path d="M1265 5580 c3 -5 17 -10 31 -10 14 0 22 4 19 10 -3 6 -17 10 -31 10
-14 0 -22 -4 -19 -10z"/>
<path d="M1349 5245 c-1 -3 -2 -10 -3 -16 0 -7 -10 -15 -21 -20 -11 -4 -17 -8
-12 -8 4 -1 0 -12 -9 -26 -8 -13 -13 -29 -9 -35 7 -11 -24 -70 -37 -70 -4 0
-8 -9 -8 -20 0 -11 7 -20 15 -20 8 0 15 8 15 19 0 10 13 28 30 41 16 12 27 27
23 33 -3 5 -1 7 5 3 6 -3 13 -2 17 4 3 5 0 10 -7 10 -7 0 0 9 16 19 16 11 34
27 39 37 8 14 6 16 -12 11 -22 -5 -30 8 -8 16 9 4 8 8 -3 16 -16 12 -29 14
-31 6z"/>
<path d="M1703 5232 c-27 -4 -31 -22 -5 -23 9 0 25 -2 35 -4 9 -2 17 0 17 5 0
14 -25 26 -47 22z"/>
<path d="M1756 5201 c-16 -18 -16 -20 12 -50 23 -26 31 -29 44 -19 21 18 27
39 17 66 -10 28 -49 30 -73 3z"/>
<path d="M1847 5122 c-17 -19 -12 -35 15 -45 19 -7 26 7 20 40 -5 28 -14 29
-35 5z"/>
<path d="M1812 5063 c2 -9 9 -18 16 -21 18 -6 15 25 -4 32 -11 4 -14 1 -12
-11z"/>
<path d="M1720 4953 c-14 -9 -44 -35 -67 -57 -30 -29 -56 -44 -90 -52 -41 -9
-48 -14 -48 -35 0 -23 15 -37 42 -38 7 -1 10 5 7 12 -3 8 9 18 31 27 19 7 35
19 35 26 0 6 7 17 15 24 11 9 15 10 15 1 0 -20 59 27 76 60 20 41 14 53 -16
32z"/>
<path d="M1750 4815 c-7 -9 -11 -18 -8 -20 3 -3 11 1 18 10 7 9 11 18 8 20 -3
3 -11 -1 -18 -10z"/>
<path d="M1715 4780 c-3 -5 -1 -10 4 -10 6 0 11 5 11 10 0 6 -2 10 -4 10 -3 0
-8 -4 -11 -10z"/>
<path d="M1770 4759 c0 -5 5 -7 10 -4 6 3 10 8 10 11 0 2 -4 4 -10 4 -5 0 -10
-5 -10 -11z"/>
<path d="M1825 4523 c-33 -33 -45 -90 -19 -90 14 0 54 72 54 98 0 14 -17 11
-35 -8z"/>
<path d="M3070 4460 c0 -5 5 -10 11 -10 5 0 7 5 4 10 -3 6 -8 10 -11 10 -2 0
-4 -4 -4 -10z"/>
<path d="M2171 4204 c-22 -28 -28 -69 -12 -79 6 -3 8 -15 6 -26 -9 -47 50
-106 84 -84 6 3 11 0 11 -7 0 -7 6 -4 13 7 18 28 21 94 4 101 -7 2 -14 21 -14
40 -1 39 -27 74 -54 74 -10 0 -27 -12 -38 -26z"/>
<path d="M1780 3930 c-13 -9 -13 -10 0 -11 8 -1 18 -1 23 0 4 0 7 -7 7 -16 0
-13 3 -14 11 -6 14 14 5 43 -13 43 -7 0 -20 -5 -28 -10z"/>
<path d="M2066 3911 c-4 -5 -2 -12 3 -15 5 -4 12 -2 15 3 4 5 2 12 -3 15 -5 4
-12 2 -15 -3z"/>
<path d="M1682 3888 c-6 -6 -19 -12 -29 -13 -31 -3 -63 -16 -63 -26 0 -12 -67
-12 -75 1 -9 15 -25 12 -25 -5 0 -41 -54 -109 -69 -88 -9 13 -55 15 -84 4 -19
-7 -28 -20 -33 -46 -3 -19 -10 -35 -15 -35 -5 0 -9 -11 -9 -24 0 -13 -8 -34
-17 -47 -10 -13 -22 -32 -28 -42 -5 -10 -13 -18 -18 -18 -4 1 -21 -6 -37 -14
-24 -12 -34 -13 -49 -3 -15 9 -22 8 -36 -5 -21 -21 -16 -48 10 -62 45 -23 47
-26 21 -46 -13 -10 -40 -19 -59 -19 -22 0 -37 -6 -41 -15 -3 -9 -19 -21 -35
-26 -39 -14 -32 -34 35 -105 47 -49 60 -70 63 -106 1 -5 15 -8 31 -8 21 0 40
-10 61 -31 20 -21 38 -30 57 -29 15 1 29 1 32 0 3 -1 19 -4 37 -6 28 -4 32 -2
43 31 6 19 18 35 25 35 21 0 26 16 15 45 -9 23 -6 30 25 62 37 38 63 39 72 3
3 -11 9 -20 14 -20 5 0 9 -11 9 -23 0 -30 28 -87 43 -89 7 0 17 -2 22 -2 17
-2 36 -17 31 -25 -12 -18 -14 -66 -5 -78 6 -7 21 -11 33 -8 11 3 36 7 55 9 18
2 36 8 40 14 6 10 37 15 78 13 15 -1 23 -9 28 -31 4 -16 10 -30 15 -30 4 0 25
15 45 33 29 26 38 42 40 69 1 19 5 40 9 47 9 14 63 15 71 0 15 -23 110 100
104 133 -2 7 1 24 5 37 5 14 4 27 -3 34 -6 6 -11 21 -11 33 0 13 -5 26 -11 30
-7 4 -9 22 -6 45 3 22 1 39 -4 39 -5 0 -9 -3 -9 -7 0 -5 -19 -8 -43 -8 -23 0
-55 -6 -70 -13 -16 -7 -31 -11 -34 -8 -8 8 22 35 51 46 15 5 31 21 36 35 12
31 -3 75 -26 75 -17 0 -53 38 -54 57 0 7 -8 18 -18 24 -13 8 -17 20 -14 40 3
22 0 29 -12 29 -12 0 -14 8 -10 40 5 34 2 43 -21 64 -20 19 -32 23 -43 17 -11
-6 -26 -5 -42 3 -38 20 -86 26 -98 14z m368 -529 c0 -5 -7 -9 -15 -9 -8 0 -15
7 -15 15 0 9 6 12 15 9 8 -4 15 -10 15 -15z m17 -56 c-4 -20 -12 -41 -18 -47
-9 -8 -10 -6 -4 9 5 11 8 32 7 48 -1 15 4 27 10 27 7 0 8 -13 5 -37z"/>
<path d="M1635 10 c-4 -6 7 -10 25 -10 18 0 29 4 25 10 -3 6 -15 10 -25 10
-10 0 -22 -4 -25 -10z"/>
</g>
</svg>
